<svg xmlns="http://www.w3.org/2000/svg" viewBox="0 0 832.49 586.67"><defs><style>.cls-1{fill:#fff;}</style></defs><g id="Layer_2" data-name="Layer 2"><g id="Layer_1-2" data-name="Layer 1"><polygon points="678.93 200.47 678.93 0 0 0 0 200.47 0 400.94 0 586.67 447.02 586.67 447.02 400.94 832.5 400.94 832.5 200.47 678.93 200.47"/><path class="cls-1" d="M120.62,348.88v-16.8c-5.2,10.4-14.4,18.8-30.8,18.8-23.6,0-38.2-17.4-38.2-45.4,0-26.8,13.2-48.6,40.2-48.6,14.8,0,23.8,6.4,28.8,15.6v-41.6h-18v-19.6h43.8v118.2h12v19.4Zm0-47.8c0-15-8.8-23.8-20.6-23.8-11.4,0-21.6,8.2-21.6,26.6,0,17.2,9.2,26.6,20.2,26.6,13.6,0,22-13.8,22-27.2Z"/><path class="cls-1" d="M169,258.68h26.8v32.4H169Zm0,57.8h26.8v32.4H169Z"/><path class="cls-1" d="M232,348.88h-25.4l39-137.6H271Z"/><path class="cls-1" d="M307.22,350.88c-26.8,0-46.4-15.2-46.4-45.4,0-27.8,16.6-48.6,45.2-48.6,25,0,42,15.8,42.4,39.2a61.35,61.35,0,0,1-1.4,13h-59.2c1.4,14,8.2,21.4,21.2,21.4,13.8,0,17.6-8.6,18.6-14l21.6,4C348,336.48,333.22,350.88,307.22,350.88Zm-1.2-75.6c-10.6,0-16.4,7.6-18,18.8h33.8C323,285.08,318.22,275.28,306,275.28Z"/><path class="cls-1" d="M484.21,348.88v-50.8c0-15.6-5.2-21.6-15.4-21.6-12.4,0-17.4,8.8-17.4,21.4v31.6h12v19.4h-37.8v-50.8c0-15.6-5.2-21.6-15.4-21.6-12.4,0-17.4,8.8-17.4,21.4v31.6H410v19.4H355v-19.4h12v-51.2h-11.8v-19.6h37.6v13.6c5.4-9.6,14.8-15.4,27.4-15.4,13,0,25,6.2,29.4,19.4,5-12,15.2-19.4,29.4-19.4,16.2,0,31,9.8,31,31.2v41.4h12v19.4Z"/><path class="cls-1" d="M655.41,348.88v-50.8c0-15.6-5.2-21.6-15.4-21.6-12.4,0-17.4,8.8-17.4,21.4v31.6h12v19.4h-37.8v-50.8c0-15.6-5.2-21.6-15.4-21.6-12.4,0-17.4,8.8-17.4,21.4v31.6h17.2v19.4h-55v-19.4h12v-51.2h-11.8v-19.6H564v13.6c5.4-9.6,14.8-15.4,27.4-15.4,13,0,25,6.2,29.4,19.4,5-12,15.2-19.4,29.4-19.4,16.2,0,31,9.8,31,31.2v41.4h12v19.4Z"/><path class="cls-1" d="M743.81,256.88c19.4,0,35.8,10,35.8,30.6v39.2c0,5.2,2,7,6.2,7a13.59,13.59,0,0,0,3.8-.6l.2,13.6a34.86,34.86,0,0,1-16.2,4.2c-12,0-18.6-7-19.8-17.8v-.2c-5.2,9.2-14.4,18-29,18-13,0-27.8-7-27.8-25.8,0-22.2,21.4-27.4,42-27.4a118,118,0,0,1,14.8.8v-3c0-9.2-.2-20.2-14.8-20.2-5.4,0-9.6.4-13.8,2.6l-3.4,12.8-20.6-2.2,4-23.4C721,258.68,729,256.88,743.81,256.88Zm10,54a95.2,95.2,0,0,0-13-1.2c-9.2,0-17.2,2.6-17.2,12.4,0,5.8,2.8,10.4,10.6,10.4,9,0,18.4-6.2,19.6-20.4Z"/><path class="cls-1" d="M96.42,531.65c-26,0-45-15.2-45-45.6,0-32,21-48.4,47.2-48.4a70.82,70.82,0,0,1,32.6,8.2l4,27.4-20.6,2.2-3-14.8a44,44,0,0,0-13.6-2.6c-11,0-19.8,7.8-19.8,26.8,0,16.6,6.8,26.4,20.6,26.4,10.4,0,16-6.2,17.8-19.2l21.6,4C136.42,512.45,125.42,531.65,96.42,531.65Z"/><path class="cls-1" d="M193.62,437.65c19.4,0,35.8,10,35.8,30.6v39.2c0,5.2,2,7,6.2,7a13.59,13.59,0,0,0,3.8-.6l.2,13.6a34.86,34.86,0,0,1-16.2,4.2c-12,0-18.6-7-19.8-17.8v-.2c-5.2,9.2-14.4,18-29,18-13,0-27.8-7-27.8-25.8,0-22.2,21.4-27.4,42-27.4a118,118,0,0,1,14.8.8v-3c0-9.2-.2-20.2-14.8-20.2-5.4,0-9.6.4-13.8,2.6l-3.4,12.8-20.6-2.2,4-23.4C170.82,439.45,178.82,437.65,193.62,437.65Zm10,54a95.2,95.2,0,0,0-13-1.2c-9.2,0-17.2,2.6-17.2,12.4,0,5.8,2.8,10.4,10.6,10.4,9,0,18.4-6.2,19.6-20.4Z"/><path class="cls-1" d="M323.62,398.25l4,24.4-20,2.2-4.4-14.2a26.89,26.89,0,0,0-7.2-1.2c-6.2,0-10,4.2-10,12v18h22.2v18.4H286v52.4h15v19.4h-52.8v-19.4h12v-52.4h-11v-18.4h11v-13.8c0-18.8,12.6-35.6,36.2-35.6C304.62,390.05,315.22,392.05,323.62,398.25Z"/><path class="cls-1" d="M360.62,531.65c-26.8,0-46.4-15.2-46.4-45.4,0-27.8,16.6-48.6,45.2-48.6,25,0,42,15.8,42.4,39.2a61.35,61.35,0,0,1-1.4,13h-59.2c1.4,14,8.2,21.4,21.2,21.4,13.8,0,17.6-8.6,18.6-14l21.6,4C401.42,517.25,386.62,531.65,360.62,531.65Zm-1.2-75.6c-10.6,0-16.4,7.6-18,18.8h33.8C376.42,465.85,371.62,456.05,359.42,456.05Zm-2.4-28-6.8-9.8,32.4-28.6,13.4,20.2Z"/><path class="cls-1" d="M97.82,170.11c-26.8,0-46.4-15.2-46.4-45.4,0-27.8,16.6-48.6,45.2-48.6,25,0,42,15.8,42.4,39.2a61.35,61.35,0,0,1-1.4,13H78.42c1.4,14,8.2,21.4,21.2,21.4,13.8,0,17.6-8.6,18.6-14l21.6,4C138.62,155.71,123.82,170.11,97.82,170.11Zm-1.2-75.6c-10.6,0-16.4,7.6-18,18.8h33.8C113.62,104.31,108.82,94.51,96.62,94.51Z"/><path class="cls-1" d="M191.42,170.11c-20,0-33.6-10.4-33.6-29V96.31H145V77.91h12.8V50.51h25.8v27.4H216v18.4h-32.4v40.4c0,8.6,4.4,11.8,10.8,11.8,3.2,0,10.2-.8,11.8-14.2l18.8,5.8C222.42,160.91,210.22,170.11,191.42,170.11Z"/><path class="cls-1" d="M287.22,168.11v-19.4h12v-31.4c0-15.6-5.6-21.6-15.8-21.6-11.8,0-18.4,8-19,19.6v33.4h12v19.4h-49.8v-19.4h12V50.11h-12V30.51h37.8v61.2c5.6-9.8,15.8-15.6,29-15.6,17,0,31.6,9.8,31.6,31.2v41.4h12v19.4Z"/><path class="cls-1" d="M351.42,77.91h26.8v32.4h-26.8Zm0,57.8h26.8v32.4h-26.8Z"/><path class="cls-1" d="M434.41,170.11c-26,0-45-15.2-45-45.6,0-32,21-48.4,47.2-48.4a70.82,70.82,0,0,1,32.6,8.2l4,27.4-20.6,2.2-3-14.8a44,44,0,0,0-13.6-2.6c-11,0-19.8,7.8-19.8,26.8,0,16.6,6.8,26.4,20.6,26.4,10.4,0,16-6.2,17.8-19.2l21.6,4C474.41,150.91,463.41,170.11,434.41,170.11Z"/><path class="cls-1" d="M531.61,76.11c19.4,0,35.8,10,35.8,30.6v39.2c0,5.2,2,7,6.2,7a13.59,13.59,0,0,0,3.8-.6l.2,13.6a34.86,34.86,0,0,1-16.2,4.2c-12,0-18.6-7-19.8-17.8v-.2c-5.2,9.2-14.4,18-29,18-13,0-27.8-7-27.8-25.8,0-22.2,21.4-27.4,42-27.4a118,118,0,0,1,14.8.8v-3c0-9.2-.2-20.2-14.8-20.2-5.4,0-9.6.4-13.8,2.6l-3.4,12.8-20.6-2.2,4-23.4C508.81,77.91,516.81,76.11,531.61,76.11Zm10,54a95.2,95.2,0,0,0-13-1.2c-9.2,0-17.2,2.6-17.2,12.4,0,5.8,2.8,10.4,10.6,10.4,9,0,18.4-6.2,19.6-20.4Z"/><path class="cls-1" d="M584.21,168.11v-19.4h12V50.11h-13V30.51H622v118.2h12v19.4Z"/></g></g></svg>